<?xml version="1.0" encoding="UTF-8"?> <svg xmlns="http://www.w3.org/2000/svg" xmlns:xlink="http://www.w3.org/1999/xlink" width="198.21" height="43.621" viewBox="0 0 198.21 43.621"><defs><linearGradient id="linear-gradient" y1="0.5" x2="1" y2="0.5" gradientUnits="objectBoundingBox"><stop offset="0" stop-color="#14416e"></stop><stop offset="0.386" stop-color="#2783b8"></stop><stop offset="0.696" stop-color="#14416d"></stop><stop offset="1" stop-color="#14406c"></stop></linearGradient></defs><g id="Group_745" data-name="Group 745" transform="translate(-977 781)"><path id="Path_1029" data-name="Path 1029" d="M17.16-8.616A9.6,9.6,0,0,1,16.542-5.1,7.843,7.843,0,0,1,14.8-2.382,7.833,7.833,0,0,1,12.1-.624,9.389,9.389,0,0,1,8.6,0H2.124V-17.232H8.6a9.389,9.389,0,0,1,3.492.624,7.833,7.833,0,0,1,2.7,1.758,7.832,7.832,0,0,1,1.746,2.724A9.613,9.613,0,0,1,17.16-8.616Zm-2.616,0a8.42,8.42,0,0,0-.42-2.754,5.826,5.826,0,0,0-1.194-2.064,5.083,5.083,0,0,0-1.872-1.29A6.493,6.493,0,0,0,8.6-15.168H4.692v13.1H8.6a6.493,6.493,0,0,0,2.454-.444A5.083,5.083,0,0,0,12.93-3.8a5.835,5.835,0,0,0,1.194-2.058A8.406,8.406,0,0,0,14.544-8.616ZM23.616,0H21.048V-17.232h2.568ZM37.692-6.42,35.136-13.1a14.9,14.9,0,0,1-.552-1.728q-.132.516-.27.96t-.27.792L31.5-6.42ZM42.744,0H40.776a.873.873,0,0,1-.552-.168A.944.944,0,0,1,39.912-.6l-1.524-4h-7.6l-1.524,4a.973.973,0,0,1-.312.414A.845.845,0,0,1,28.4,0H26.436L33.3-17.232h2.58ZM55.428-2.148V0H45.564V-17.232H48.12V-2.148Zm13.86.072L69.276,0H58.6V-17.232h10.68v2.076H61.164V-9.7h6.528v2H61.164v5.616ZM84.78-3.7a.491.491,0,0,1,.372.168l1.008,1.1A7.2,7.2,0,0,1,83.586-.492a8.853,8.853,0,0,1-3.654.684,8.552,8.552,0,0,1-3.39-.648A7.467,7.467,0,0,1,73.95-2.268a8.151,8.151,0,0,1-1.662-2.784A10.377,10.377,0,0,1,71.7-8.616a9.923,9.923,0,0,1,.618-3.564,8.183,8.183,0,0,1,1.734-2.784,7.82,7.82,0,0,1,2.67-1.812,8.849,8.849,0,0,1,3.438-.648,8.362,8.362,0,0,1,3.264.6,8.223,8.223,0,0,1,2.484,1.6l-.84,1.188a.722.722,0,0,1-.21.216.585.585,0,0,1-.33.084.947.947,0,0,1-.534-.228,7.846,7.846,0,0,0-.8-.51,6.338,6.338,0,0,0-1.23-.51,6.221,6.221,0,0,0-1.824-.228,6,6,0,0,0-2.352.45,5.206,5.206,0,0,0-1.842,1.3,5.881,5.881,0,0,0-1.2,2.076,8.458,8.458,0,0,0-.426,2.778,8.17,8.17,0,0,0,.444,2.8,6.125,6.125,0,0,0,1.224,2.076,5.189,5.189,0,0,0,1.836,1.3A5.822,5.822,0,0,0,80.1-2a8.991,8.991,0,0,0,1.338-.09,5.738,5.738,0,0,0,1.092-.27,4.786,4.786,0,0,0,.942-.462,6.3,6.3,0,0,0,.876-.678.964.964,0,0,1,.2-.138A.5.5,0,0,1,84.78-3.7Zm16.38-11.4H95.688V0H93.144V-15.1h-5.5v-2.136H101.16ZM106.884,0h-2.568V-17.232h2.568ZM123.84-3.7a.491.491,0,0,1,.372.168l1.008,1.1a7.2,7.2,0,0,1-2.574,1.932,8.853,8.853,0,0,1-3.654.684,8.552,8.552,0,0,1-3.39-.648,7.467,7.467,0,0,1-2.592-1.812,8.151,8.151,0,0,1-1.662-2.784,10.377,10.377,0,0,1-.588-3.564,9.923,9.923,0,0,1,.618-3.564,8.183,8.183,0,0,1,1.734-2.784,7.82,7.82,0,0,1,2.67-1.812,8.849,8.849,0,0,1,3.438-.648,8.362,8.362,0,0,1,3.264.6,8.223,8.223,0,0,1,2.484,1.6l-.84,1.188a.722.722,0,0,1-.21.216.585.585,0,0,1-.33.084.947.947,0,0,1-.534-.228,7.846,7.846,0,0,0-.8-.51,6.338,6.338,0,0,0-1.23-.51,6.221,6.221,0,0,0-1.824-.228,6,6,0,0,0-2.352.45A5.206,5.206,0,0,0,115-13.47a5.881,5.881,0,0,0-1.2,2.076,8.458,8.458,0,0,0-.426,2.778,8.17,8.17,0,0,0,.444,2.8,6.125,6.125,0,0,0,1.224,2.076,5.189,5.189,0,0,0,1.836,1.3A5.822,5.822,0,0,0,119.16-2a8.991,8.991,0,0,0,1.338-.09,5.738,5.738,0,0,0,1.092-.27,4.786,4.786,0,0,0,.942-.462,6.3,6.3,0,0,0,.876-.678.964.964,0,0,1,.2-.138A.5.5,0,0,1,123.84-3.7ZM137.628-6.42,135.072-13.1a14.9,14.9,0,0,1-.552-1.728q-.132.516-.27.96t-.27.792l-2.544,6.66ZM142.68,0h-1.968a.873.873,0,0,1-.552-.168.944.944,0,0,1-.312-.432l-1.524-4h-7.6L129.2-.6a.973.973,0,0,1-.312.414A.845.845,0,0,1,128.34,0h-1.968l6.864-17.232h2.58Z" transform="translate(1031.076 -757)" fill="#14406c"></path><path id="Path_1030" data-name="Path 1030" d="M4.012-1.863A1.766,1.766,0,0,1,3.395-.424,2.65,2.65,0,0,1,1.657.088,4.668,4.668,0,0,1,.837.024,2.6,2.6,0,0,1,.171-.189V-.936a3.2,3.2,0,0,0,1.494.369A1.766,1.766,0,0,0,2.795-.9a1.1,1.1,0,0,0,.417-.912.886.886,0,0,0-.231-.6,3.508,3.508,0,0,0-.859-.617A2.729,2.729,0,0,1,1.2-3.779a1.519,1.519,0,0,1-.257-.883A1.708,1.708,0,0,1,1.525-6,2.208,2.208,0,0,1,3.05-6.517a3.734,3.734,0,0,1,.811.083,3.65,3.65,0,0,1,.793.286l-.29.659a2.7,2.7,0,0,0-.65-.264,2.575,2.575,0,0,0-.664-.1,1.41,1.41,0,0,0-.947.305,1.032,1.032,0,0,0-.358.828,1,1,0,0,0,.075.406.967.967,0,0,0,.237.319,4,4,0,0,0,.624.417,5.286,5.286,0,0,1,.872.606,1.532,1.532,0,0,1,.343.486A1.527,1.527,0,0,1,4.012-1.863ZM7.892,0l.65-3.041a3.614,3.614,0,0,0,.079-.593.573.573,0,0,0-.646-.65,1.317,1.317,0,0,0-.762.259,2.279,2.279,0,0,0-.655.754A4.043,4.043,0,0,0,6.13-2.079L5.686,0H4.948L6.4-6.838h.738q-.079.36-.152.7t-.149.688q-.077.349-.167.732t-.209.831h.048a2.928,2.928,0,0,1,.815-.773A1.655,1.655,0,0,1,8.165-4.9a1.2,1.2,0,0,1,.89.316,1.217,1.217,0,0,1,.314.9,3.571,3.571,0,0,1-.1.729Q9.1-2.1,8.63,0Zm4.97-4.9a1.242,1.242,0,0,1,.721.218,1.414,1.414,0,0,1,.492.626h.048l.294-.756h.558L13.952,0h-.584l.114-.918h-.035A2.167,2.167,0,0,1,11.79.088a1.158,1.158,0,0,1-.958-.435,1.859,1.859,0,0,1-.347-1.191,4.537,4.537,0,0,1,.312-1.7,2.931,2.931,0,0,1,.861-1.226A1.874,1.874,0,0,1,12.862-4.9ZM12.027-.523a1.237,1.237,0,0,0,.848-.406,3.012,3.012,0,0,0,.686-1.059A3.466,3.466,0,0,0,13.824-3.3a1.024,1.024,0,0,0-.246-.721.836.836,0,0,0-.646-.268,1.21,1.21,0,0,0-.85.378,2.55,2.55,0,0,0-.617,1.024,4.127,4.127,0,0,0-.224,1.362,1.152,1.152,0,0,0,.207.749A.713.713,0,0,0,12.027-.523ZM18.614-4.9a2.005,2.005,0,0,1,.527.062l-.158.659a1.932,1.932,0,0,0-.461-.057,1.221,1.221,0,0,0-.749.264,2.308,2.308,0,0,0-.611.732,3.725,3.725,0,0,0-.385,1.039L16.307,0h-.738L16.6-4.816h.611l-.1.892h.044a4.318,4.318,0,0,1,.523-.6,1.658,1.658,0,0,1,.433-.281A1.244,1.244,0,0,1,18.614-4.9ZM20.042,0H19.3l1.028-4.816h.738Zm.5-6.047a.578.578,0,0,1,.141-.4.468.468,0,0,1,.365-.156.346.346,0,0,1,.387.4.6.6,0,0,1-.147.409.443.443,0,0,1-.341.167.406.406,0,0,1-.29-.108A.4.4,0,0,1,20.538-6.047ZM24.7,0l.65-3.041a4.008,4.008,0,0,0,.088-.633.624.624,0,0,0-.156-.444.655.655,0,0,0-.5-.167,1.3,1.3,0,0,0-.762.264,2.346,2.346,0,0,0-.655.751,3.954,3.954,0,0,0-.428,1.182L22.5,0H21.76l1.028-4.816H23.4l-.1.892h.044a2.936,2.936,0,0,1,.815-.758,1.637,1.637,0,0,1,.815-.222,1.23,1.23,0,0,1,.881.305,1.12,1.12,0,0,1,.323.855,3.607,3.607,0,0,1-.1.791L25.451,0Zm7-4.816-.11.47-.927.105a1.235,1.235,0,0,1,.18.694,1.782,1.782,0,0,1-.512,1.338,1.878,1.878,0,0,1-1.369.5,1.473,1.473,0,0,1-.369-.035q-.611.233-.611.576a.233.233,0,0,0,.145.24,1.754,1.754,0,0,0,.422.094l.514.062a2.29,2.29,0,0,1,1.154.387,1.032,1.032,0,0,1,.358.853,1.435,1.435,0,0,1-.642,1.252,3.147,3.147,0,0,1-1.806.444,2.383,2.383,0,0,1-1.336-.323,1.034,1.034,0,0,1-.483-.912,1.132,1.132,0,0,1,.316-.8,2.464,2.464,0,0,1,1.024-.576.572.572,0,0,1-.343-.532.7.7,0,0,1,.224-.521,2.31,2.31,0,0,1,.624-.406,1.15,1.15,0,0,1-.453-.415,1.16,1.16,0,0,1-.176-.639,1.931,1.931,0,0,1,.525-1.4A1.783,1.783,0,0,1,29.393-4.9a2.648,2.648,0,0,1,.677.088ZM27.02.857a.62.62,0,0,0,.286.536,1.493,1.493,0,0,0,.848.2,2.371,2.371,0,0,0,1.25-.279.879.879,0,0,0,.45-.789.492.492,0,0,0-.237-.431,1.9,1.9,0,0,0-.809-.22l-.7-.07A1.586,1.586,0,0,0,27.3.189.9.9,0,0,0,27.02.857Zm1.222-3.845a.766.766,0,0,0,.2.569.747.747,0,0,0,.549.2,1.019,1.019,0,0,0,.606-.185,1.174,1.174,0,0,0,.4-.508,1.761,1.761,0,0,0,.138-.7.734.734,0,0,0-.193-.549.76.76,0,0,0-.554-.189,1.028,1.028,0,0,0-.6.178,1.168,1.168,0,0,0-.4.5A1.672,1.672,0,0,0,28.241-2.988Zm7.263.532,2.312-2.36H38.7L36.639-2.764,37.935,0h-.822L36.08-2.3l-.668.541L35.052,0h-.747l1.45-6.838H36.5l-.567,2.646a15.723,15.723,0,0,1-.448,1.736ZM41.819,0l.65-3.041a4.008,4.008,0,0,0,.088-.633.624.624,0,0,0-.156-.444.655.655,0,0,0-.5-.167,1.3,1.3,0,0,0-.762.264,2.346,2.346,0,0,0-.655.751,3.954,3.954,0,0,0-.428,1.182L39.613,0h-.738L39.9-4.816h.611l-.1.892h.044a2.936,2.936,0,0,1,.815-.758,1.637,1.637,0,0,1,.815-.222,1.23,1.23,0,0,1,.881.305,1.12,1.12,0,0,1,.323.855,3.607,3.607,0,0,1-.1.791L42.566,0Zm4.987-4.878a1.759,1.759,0,0,1,1.318.494,1.862,1.862,0,0,1,.483,1.36,3.9,3.9,0,0,1-.316,1.56A2.7,2.7,0,0,1,47.435-.33a2,2,0,0,1-1.222.4,1.752,1.752,0,0,1-1.323-.5,1.874,1.874,0,0,1-.479-1.358,3.889,3.889,0,0,1,.321-1.571A2.663,2.663,0,0,1,45.6-4.485,2.018,2.018,0,0,1,46.807-4.878Zm1.037,1.753a1.2,1.2,0,0,0-.275-.82.939.939,0,0,0-.745-.314,1.286,1.286,0,0,0-.859.325,2.093,2.093,0,0,0-.589.9,3.762,3.762,0,0,0-.209,1.285,1.3,1.3,0,0,0,.279.89,1.016,1.016,0,0,0,.8.314,1.212,1.212,0,0,0,.822-.321,2.1,2.1,0,0,0,.569-.912A4.126,4.126,0,0,0,47.844-3.125ZM52.673,0l-.141-2.646q-.018-.413-.018-.756v-.686h-.04l-.22.519-.365.831L50.612,0h-.888l-.189-4.816h.721l.079,2.61v.387q0,.646-.035,1.182h.026q.207-.545.6-1.415l1.3-2.764h.8l.163,2.61q.026.738.026,1.151v.233L53.2-.637h.026q.123-.378.365-.96t1.419-3.219H55.8L53.574,0Zm3.959,0h-.738l1.459-6.838h.738Zm3.629.088a1.681,1.681,0,0,1-1.27-.479,1.834,1.834,0,0,1-.461-1.327A3.955,3.955,0,0,1,58.858-3.3a2.932,2.932,0,0,1,.868-1.18A1.891,1.891,0,0,1,60.916-4.9a1.511,1.511,0,0,1,1.011.292,1.02,1.02,0,0,1,.338.815,1.393,1.393,0,0,1-.729,1.241,4,4,0,0,1-2.087.45H59.3l-.018.352a1.36,1.36,0,0,0,.27.9,1.03,1.03,0,0,0,.837.323,2.174,2.174,0,0,0,.569-.079A4.357,4.357,0,0,0,61.69-.9v.642a3.983,3.983,0,0,1-.729.27A2.959,2.959,0,0,1,60.262.088Zm.611-4.364a1.174,1.174,0,0,0-.85.413,2.7,2.7,0,0,0-.609,1.147h.053A3.588,3.588,0,0,0,61-2.977a.821.821,0,0,0,.534-.758.513.513,0,0,0-.16-.387A.706.706,0,0,0,60.872-4.276Zm4.645-.62a1.282,1.282,0,0,1,1.235.835H66.8a10.123,10.123,0,0,1,.2-1.2l.343-1.573h.729L66.616,0H66l.1-.918h-.035a3.3,3.3,0,0,1-.831.778,1.552,1.552,0,0,1-.8.229,1.151,1.151,0,0,1-.954-.431,1.872,1.872,0,0,1-.343-1.2,4.553,4.553,0,0,1,.316-1.723,2.873,2.873,0,0,1,.855-1.208A1.894,1.894,0,0,1,65.517-4.9ZM64.682-.523a1.28,1.28,0,0,0,.853-.411,2.885,2.885,0,0,0,.7-1.05,3.465,3.465,0,0,0,.257-1.3,1.052,1.052,0,0,0-.237-.743.9.9,0,0,0-.69-.255,1.176,1.176,0,0,0-.824.363,2.549,2.549,0,0,0-.611,1.02A4.141,4.141,0,0,0,63.9-1.521Q63.9-.523,64.682-.523Zm8.226-4.293-.11.47-.927.105a1.235,1.235,0,0,1,.18.694,1.782,1.782,0,0,1-.512,1.338,1.878,1.878,0,0,1-1.369.5,1.473,1.473,0,0,1-.369-.035q-.611.233-.611.576a.233.233,0,0,0,.145.24,1.754,1.754,0,0,0,.422.094l.514.062a2.29,2.29,0,0,1,1.154.387,1.032,1.032,0,0,1,.358.853,1.435,1.435,0,0,1-.642,1.252,3.147,3.147,0,0,1-1.806.444A2.383,2.383,0,0,1,68,1.839a1.034,1.034,0,0,1-.483-.912,1.132,1.132,0,0,1,.316-.8,2.464,2.464,0,0,1,1.024-.576.572.572,0,0,1-.343-.532.7.7,0,0,1,.224-.521,2.31,2.31,0,0,1,.624-.406,1.15,1.15,0,0,1-.453-.415,1.16,1.16,0,0,1-.176-.639,1.931,1.931,0,0,1,.525-1.4A1.783,1.783,0,0,1,70.6-4.9a2.648,2.648,0,0,1,.677.088ZM68.228.857a.62.62,0,0,0,.286.536,1.493,1.493,0,0,0,.848.2,2.371,2.371,0,0,0,1.25-.279.879.879,0,0,0,.45-.789.492.492,0,0,0-.237-.431,1.9,1.9,0,0,0-.809-.22l-.7-.07a1.586,1.586,0,0,0-.809.387A.9.9,0,0,0,68.228.857ZM69.45-2.988a.766.766,0,0,0,.2.569.747.747,0,0,0,.549.2,1.019,1.019,0,0,0,.606-.185,1.174,1.174,0,0,0,.4-.508,1.761,1.761,0,0,0,.138-.7.734.734,0,0,0-.193-.549.76.76,0,0,0-.554-.189,1.028,1.028,0,0,0-.6.178,1.168,1.168,0,0,0-.4.5A1.672,1.672,0,0,0,69.45-2.988ZM74.916.088a1.681,1.681,0,0,1-1.27-.479,1.834,1.834,0,0,1-.461-1.327A3.955,3.955,0,0,1,73.512-3.3a2.932,2.932,0,0,1,.868-1.18A1.891,1.891,0,0,1,75.571-4.9a1.511,1.511,0,0,1,1.011.292,1.02,1.02,0,0,1,.338.815,1.393,1.393,0,0,1-.729,1.241A4,4,0,0,1,74.1-2.1h-.145l-.018.352a1.36,1.36,0,0,0,.27.9,1.03,1.03,0,0,0,.837.323,2.174,2.174,0,0,0,.569-.079,4.357,4.357,0,0,0,.727-.29v.642a3.983,3.983,0,0,1-.729.27A2.959,2.959,0,0,1,74.916.088Zm.611-4.364a1.174,1.174,0,0,0-.85.413,2.7,2.7,0,0,0-.609,1.147h.053a3.588,3.588,0,0,0,1.536-.261.821.821,0,0,0,.534-.758.513.513,0,0,0-.16-.387A.706.706,0,0,0,75.527-4.276ZM82.267.088a1.282,1.282,0,0,1-.749-.224,1.371,1.371,0,0,1-.486-.611h-.044L80.681,0h-.549l1.45-6.838h.738Q82.1-5.774,81.975-5.21t-.332,1.321h.04a3.206,3.206,0,0,1,.806-.762,1.548,1.548,0,0,1,.82-.244,1.168,1.168,0,0,1,.967.435,1.867,1.867,0,0,1,.347,1.2,4.678,4.678,0,0,1-.3,1.7,2.845,2.845,0,0,1-.839,1.217A1.877,1.877,0,0,1,82.267.088Zm.817-4.373a1.271,1.271,0,0,0-.859.417,2.977,2.977,0,0,0-.694,1.05,3.415,3.415,0,0,0-.257,1.3,1.035,1.035,0,0,0,.244.74.926.926,0,0,0,.705.257,1.162,1.162,0,0,0,.811-.356,2.5,2.5,0,0,0,.6-1.013,4.217,4.217,0,0,0,.229-1.4Q83.867-4.285,83.085-4.285ZM87.4.088a1.681,1.681,0,0,1-1.27-.479,1.834,1.834,0,0,1-.461-1.327A3.955,3.955,0,0,1,86-3.3a2.932,2.932,0,0,1,.868-1.18A1.891,1.891,0,0,1,88.055-4.9a1.511,1.511,0,0,1,1.011.292A1.02,1.02,0,0,1,89.4-3.8a1.393,1.393,0,0,1-.729,1.241,4,4,0,0,1-2.087.45h-.145l-.018.352a1.36,1.36,0,0,0,.27.9,1.03,1.03,0,0,0,.837.323A2.174,2.174,0,0,0,88.1-.611a4.357,4.357,0,0,0,.727-.29v.642a3.983,3.983,0,0,1-.729.27A2.959,2.959,0,0,1,87.4.088Zm.611-4.364a1.174,1.174,0,0,0-.85.413,2.7,2.7,0,0,0-.609,1.147H86.6a3.588,3.588,0,0,0,1.536-.261.821.821,0,0,0,.534-.758.513.513,0,0,0-.16-.387A.706.706,0,0,0,88.011-4.276ZM90.1-4.816h.738l.325,2.4q.044.3.086.894t.042.951h.026q.154-.382.382-.879t.338-.686l1.428-2.676h.782L91.188.817a3.173,3.173,0,0,1-.809,1.05,1.578,1.578,0,0,1-.962.294A2.073,2.073,0,0,1,88.8,2.07V1.477a2.085,2.085,0,0,0,.576.079.913.913,0,0,0,.617-.222,2.406,2.406,0,0,0,.5-.657l.334-.6Zm6.723-.062a1.759,1.759,0,0,1,1.318.494,1.862,1.862,0,0,1,.483,1.36,3.9,3.9,0,0,1-.316,1.56A2.7,2.7,0,0,1,97.449-.33a2,2,0,0,1-1.222.4,1.752,1.752,0,0,1-1.323-.5,1.874,1.874,0,0,1-.479-1.358,3.889,3.889,0,0,1,.321-1.571,2.663,2.663,0,0,1,.866-1.129A2.018,2.018,0,0,1,96.821-4.878Zm1.037,1.753a1.2,1.2,0,0,0-.275-.82.939.939,0,0,0-.745-.314,1.286,1.286,0,0,0-.859.325,2.093,2.093,0,0,0-.589.9,3.762,3.762,0,0,0-.209,1.285,1.3,1.3,0,0,0,.279.89,1.016,1.016,0,0,0,.8.314,1.212,1.212,0,0,0,.822-.321,2.1,2.1,0,0,0,.569-.912A4.126,4.126,0,0,0,97.858-3.125ZM102.419,0l.65-3.041a4.008,4.008,0,0,0,.088-.633A.624.624,0,0,0,103-4.118a.655.655,0,0,0-.5-.167,1.3,1.3,0,0,0-.762.264,2.346,2.346,0,0,0-.655.751,3.954,3.954,0,0,0-.428,1.182L100.213,0h-.738L100.5-4.816h.611l-.1.892h.044a2.936,2.936,0,0,1,.815-.758,1.637,1.637,0,0,1,.815-.222,1.23,1.23,0,0,1,.881.305,1.12,1.12,0,0,1,.323.855,3.607,3.607,0,0,1-.1.791L103.166,0Zm4.97-4.9a1.282,1.282,0,0,1,1.235.835h.044a10.123,10.123,0,0,1,.2-1.2l.343-1.573h.729L108.488,0h-.611l.1-.918h-.035a3.3,3.3,0,0,1-.831.778,1.552,1.552,0,0,1-.8.229,1.151,1.151,0,0,1-.954-.431,1.872,1.872,0,0,1-.343-1.2,4.553,4.553,0,0,1,.316-1.723,2.873,2.873,0,0,1,.855-1.208A1.894,1.894,0,0,1,107.389-4.9Zm-.835,4.373a1.28,1.28,0,0,0,.853-.411,2.885,2.885,0,0,0,.7-1.05,3.465,3.465,0,0,0,.257-1.3,1.052,1.052,0,0,0-.237-.743.9.9,0,0,0-.69-.255,1.176,1.176,0,0,0-.824.363A2.549,2.549,0,0,0,106-2.9a4.141,4.141,0,0,0-.231,1.382Q105.767-.523,106.554-.523Zm8.3.611a1.282,1.282,0,0,1-.749-.224,1.371,1.371,0,0,1-.486-.611h-.044L113.264,0h-.549l1.45-6.838h.738q-.224,1.063-.345,1.628t-.332,1.321h.04a3.206,3.206,0,0,1,.806-.762,1.548,1.548,0,0,1,.82-.244,1.168,1.168,0,0,1,.967.435,1.867,1.867,0,0,1,.347,1.2,4.678,4.678,0,0,1-.3,1.7,2.845,2.845,0,0,1-.839,1.217A1.877,1.877,0,0,1,114.85.088Zm.817-4.373a1.271,1.271,0,0,0-.859.417,2.977,2.977,0,0,0-.694,1.05,3.415,3.415,0,0,0-.257,1.3,1.035,1.035,0,0,0,.244.74.926.926,0,0,0,.705.257,1.162,1.162,0,0,0,.811-.356,2.5,2.5,0,0,0,.6-1.013,4.217,4.217,0,0,0,.229-1.4Q116.45-4.285,115.668-4.285Zm4.979-.593a1.759,1.759,0,0,1,1.318.494,1.862,1.862,0,0,1,.483,1.36,3.9,3.9,0,0,1-.316,1.56,2.7,2.7,0,0,1-.857,1.134,2,2,0,0,1-1.222.4,1.752,1.752,0,0,1-1.323-.5,1.874,1.874,0,0,1-.479-1.358,3.889,3.889,0,0,1,.321-1.571,2.663,2.663,0,0,1,.866-1.129A2.018,2.018,0,0,1,120.646-4.878Zm1.037,1.753a1.2,1.2,0,0,0-.275-.82.939.939,0,0,0-.745-.314,1.286,1.286,0,0,0-.859.325,2.093,2.093,0,0,0-.589.9,3.762,3.762,0,0,0-.209,1.285,1.3,1.3,0,0,0,.279.89,1.016,1.016,0,0,0,.8.314,1.212,1.212,0,0,0,.822-.321,2.1,2.1,0,0,0,.569-.912A4.126,4.126,0,0,0,121.683-3.125Zm4.662-1.78a2.005,2.005,0,0,1,.527.062l-.158.659a1.932,1.932,0,0,0-.461-.057,1.221,1.221,0,0,0-.749.264,2.308,2.308,0,0,0-.611.732,3.725,3.725,0,0,0-.385,1.039L124.038,0H123.3l1.028-4.816h.611l-.1.892h.044a4.318,4.318,0,0,1,.523-.6,1.658,1.658,0,0,1,.433-.281A1.244,1.244,0,0,1,126.346-4.9ZM129.4-4.9a1.282,1.282,0,0,1,1.235.835h.044a10.123,10.123,0,0,1,.2-1.2l.343-1.573h.729L130.5,0h-.611l.1-.918h-.035a3.3,3.3,0,0,1-.831.778,1.552,1.552,0,0,1-.8.229,1.151,1.151,0,0,1-.954-.431,1.872,1.872,0,0,1-.343-1.2,4.553,4.553,0,0,1,.316-1.723,2.873,2.873,0,0,1,.855-1.208A1.894,1.894,0,0,1,129.4-4.9Zm-.835,4.373a1.28,1.28,0,0,0,.853-.411,2.885,2.885,0,0,0,.7-1.05,3.465,3.465,0,0,0,.257-1.3,1.052,1.052,0,0,0-.237-.743.9.9,0,0,0-.69-.255,1.176,1.176,0,0,0-.824.363,2.549,2.549,0,0,0-.611,1.02,4.141,4.141,0,0,0-.231,1.382Q127.782-.523,128.569-.523Zm5.554.611a1.681,1.681,0,0,1-1.27-.479,1.834,1.834,0,0,1-.461-1.327,3.955,3.955,0,0,1,.327-1.584,2.932,2.932,0,0,1,.868-1.18,1.891,1.891,0,0,1,1.191-.422,1.511,1.511,0,0,1,1.011.292,1.02,1.02,0,0,1,.338.815,1.393,1.393,0,0,1-.729,1.241,4,4,0,0,1-2.087.45h-.145l-.018.352a1.36,1.36,0,0,0,.27.9,1.03,1.03,0,0,0,.837.323,2.174,2.174,0,0,0,.569-.079,4.357,4.357,0,0,0,.727-.29v.642a3.983,3.983,0,0,1-.729.27A2.959,2.959,0,0,1,134.123.088Zm.611-4.364a1.174,1.174,0,0,0-.85.413,2.7,2.7,0,0,0-.609,1.147h.053a3.588,3.588,0,0,0,1.536-.261.821.821,0,0,0,.534-.758.513.513,0,0,0-.16-.387A.706.706,0,0,0,134.734-4.276Zm5.141-.628a2.005,2.005,0,0,1,.527.062l-.158.659a1.932,1.932,0,0,0-.461-.057,1.221,1.221,0,0,0-.749.264,2.308,2.308,0,0,0-.611.732,3.725,3.725,0,0,0-.385,1.039L137.568,0h-.738l1.028-4.816h.611l-.1.892h.044a4.318,4.318,0,0,1,.523-.6,1.658,1.658,0,0,1,.433-.281A1.244,1.244,0,0,1,139.875-4.9Zm3.66,3.538A1.288,1.288,0,0,1,143.05-.3a2.156,2.156,0,0,1-1.369.385,2.92,2.92,0,0,1-1.34-.3V-.91A2.736,2.736,0,0,0,141-.624a2.425,2.425,0,0,0,.659.1,1.34,1.34,0,0,0,.835-.22.683.683,0,0,0,.281-.562.609.609,0,0,0-.154-.422,3.1,3.1,0,0,0-.664-.47,2.673,2.673,0,0,1-.809-.628,1.159,1.159,0,0,1-.237-.729,1.212,1.212,0,0,1,.444-.978,1.762,1.762,0,0,1,1.169-.371,3.4,3.4,0,0,1,1.45.325l-.237.6-.246-.11a2.442,2.442,0,0,0-.967-.189.983.983,0,0,0-.642.191.61.61,0,0,0-.233.494.614.614,0,0,0,.156.422,2.753,2.753,0,0,0,.644.453,3.743,3.743,0,0,1,.675.453,1.307,1.307,0,0,1,.305.406A1.149,1.149,0,0,1,143.535-1.367Z" transform="translate(1031.231 -742.675)" fill="#14406c"></path><g id="Group_620" data-name="Group 620" transform="translate(977 -781)"><path id="Path_869" data-name="Path 869" d="M99.14,368.335a17.067,17.067,0,0,1-7.79-31.491l.308-.218-1.415-2.83a20.25,20.25,0,0,0,8.662,37.712,27.562,27.562,0,0,0,8.5-.9l-.867-3.115A29.942,29.942,0,0,1,99.14,368.335Z" transform="translate(-80.151 -330.996)" fill="url(#linear-gradient)"></path><path id="Path_870" data-name="Path 870" d="M137.575,349.078a20.1,20.1,0,0,0-26.984-20.339l1.077,2.968h0a16.94,16.94,0,0,1,22.758,17.138c-.438,4.687-2.444,10.911-8.351,13.632l1.189,2.537,1.009,2.063,1.988,4.046c.125-.085.262-7.758.384-7.848C134.813,360.2,137.129,354.474,137.575,349.078Z" transform="translate(-97.046 -327.503)" fill="url(#linear-gradient)"></path></g><g id="Group_621" data-name="Group 621" transform="translate(983.134 -774.608)"><path id="Path_871" data-name="Path 871" d="M105.53,345.911c.335,1.006,2.855,1.074,5.629.152s4.752-2.486,4.418-3.493c-.116-.349-.5-.582-1.061-.7a14.126,14.126,0,0,0-8.557,2.848A1.3,1.3,0,0,0,105.53,345.911Z" transform="translate(-100.351 -341.868)" fill="url(#linear-gradient)"></path><path id="Path_872" data-name="Path 872" d="M108.383,366.7c-6.308,1.926-12.112,1.893-14.447.14a14.378,14.378,0,0,0,.335,1.95,20.037,20.037,0,0,0,.987,2.912c.044.077.044.077.086.09,4.2,1.4,8.761,1.078,14.553-.668,5.711-1.722,10.521-5.071,12.367-7.894a14.469,14.469,0,0,0-.283-1.42,14.254,14.254,0,0,0-1.377-3.442C119.929,361.207,114.967,364.69,108.383,366.7Z" transform="translate(-93.936 -351.026)" fill="url(#linear-gradient)"></path><path id="Path_873" data-name="Path 873" d="M117.58,389.128a27,27,0,0,1-11.7,1.073,14.345,14.345,0,0,0,3.957,2.234c1.886.545,5.073.37,8.536-.619s6.289-2.528,7.62-3.991a14.339,14.339,0,0,0,2.445-4.735A26.489,26.489,0,0,1,117.58,389.128Z" transform="translate(-100.565 -364.747)" fill="url(#linear-gradient)"></path><path id="Path_874" data-name="Path 874" d="M107.345,353.644c5.522-1.686,9.791-4.5,10.946-6.963a14.335,14.335,0,0,0-5.517-3.284,1.255,1.255,0,0,1,.249.426c.56,1.685-2.751,4.3-7.4,5.847-4.549,1.513-8.681,1.431-9.376-.156a14.316,14.316,0,0,0-1.789,4.477C96.782,355.372,101.852,355.321,107.345,353.644Z" transform="translate(-94.227 -342.717)" fill="url(#linear-gradient)"></path></g></g></svg> 